<svg id="Capa_1" data-name="Capa 1" xmlns="http://www.w3.org/2000/svg" viewBox="0 0 355.19 217.67"><defs><style>.cls-1{fill:white;}</style></defs><g id="Layer_1"><g id="_2296210404144" data-name=" 2296210404144"><path class="cls-1" d="M267.85,8.64h.49a3.31,3.31,0,0,1,2.57,3.44c0,1.88.74,2.83,2.23,2.83a10.35,10.35,0,0,1,2.24-.26,3.46,3.46,0,0,1,3.55,2.09v.75c0,1.26-.94,2-2.82,2.21-2.31,0-3.75.33-4.32,1a3.51,3.51,0,0,0-.75,2c0,.53,0,1.38,0,2.57v.85c-.26,2.21-1.08,3.32-2.46,3.32q-3,0-2.78-6.12c-.29-1.4-.95-2.1-2-2.1h-.24a16.26,16.26,0,0,0-2.48.22c-2-.22-2.95-1-2.95-2.34q.54-2.58,3.81-2.58c2.06-.19,3.1-.75,3.1-1.69.24,0,.4-1.36.49-4.07.53-1.38,1.31-2.07,2.33-2.07Z" transform="translate(0 0)"/><path class="cls-1" d="M285.32,43.28l10.28-17-.76,16.33-9.52.68Zm9.85,11.84a3.53,3.53,0,0,0,4.74.21,2.82,2.82,0,0,0,1-2l.24-5.22,2.8-.18a3.19,3.19,0,0,0,2.28-1.11,2.66,2.66,0,0,0,.71-1.74v-.29a3.24,3.24,0,0,0-1.15-2.08,3.38,3.38,0,0,0-2.05-.69l-.37,0-2,.15,1.32-28.38c.06-1.35-.65-2.28-2.25-2.95a5.48,5.48,0,0,0-1-.15,3.17,3.17,0,0,0-2.95,1.53l-20,33.07a2.76,2.76,0,0,0-.39,1.26,2.71,2.71,0,0,0,.43,1.55,3.18,3.18,0,0,0,2.75,1.55l.38,0,14.74-1.07-.2,4.44a2.82,2.82,0,0,0,.81,2.11Z" transform="translate(0 0)"/><path class="cls-1" d="M323.18,17.22a1.57,1.57,0,0,1,.56-.07,5.32,5.32,0,0,1,1.77.38,7.19,7.19,0,0,1,2.7,2.45,15.51,15.51,0,0,1,1.63,3.19,28.12,28.12,0,0,1,1.36,10l0,.9a29.39,29.39,0,0,1-2.63,10.85,13.73,13.73,0,0,1-1.78,2.8,4.86,4.86,0,0,1-2.82,1.86l-.08,0h-.08a2.28,2.28,0,0,1-.6-.11,5.32,5.32,0,0,1-2.52-2.1,13.14,13.14,0,0,1-1.58-3,31.17,31.17,0,0,1-1.89-11.13c0-.58,0-1.2,0-1.82a30.54,30.54,0,0,1,2-9.41,13.64,13.64,0,0,1,1.57-2.86,4.9,4.9,0,0,1,2.46-2Zm-9.31,0a25.49,25.49,0,0,0-3.14,8.27,45.41,45.41,0,0,0-.71,6c0,.59,0,1.15,0,1.69a40.22,40.22,0,0,0,.75,7.65,25.16,25.16,0,0,0,3,8.21,12.28,12.28,0,0,0,6.69,5.41,12,12,0,0,0,3.07.55,11.22,11.22,0,0,0,8.39-3.27,18.58,18.58,0,0,0,3.42-4.88,33.17,33.17,0,0,0,3-12.39l0-.87a36.17,36.17,0,0,0-.44-7.06,23.82,23.82,0,0,0-2.67-7.84A13.51,13.51,0,0,0,329.09,13a13.92,13.92,0,0,0-5.1-1.21h-.52a11.1,11.1,0,0,0-9.6,5.47Z" transform="translate(0 0)"/><path class="cls-1" d="M27.73,201a2.58,2.58,0,0,1-1.47,1.57c-1.53.61-3.74-.14-5.32-.87l-2.24-1.06q1.43-3,2.87-5.93l1.79.85C26.21,196.94,28.72,198.53,27.73,201Zm1.39-9a2.76,2.76,0,0,1-1.49,1.66c-1.19.45-2.87-.21-4.35-.92l-.61-.3L25.34,187l.59.28c2.69,1.28,4.24,2.24,3.19,4.77Zm-1.85-7.11c-1.06-.5-2.13-1-3.18-1.57l-.27-.14-.14.27q-4.58,8.9-9.11,17.78l-.14.28.28.14c1.76.91,3.55,1.78,5.33,2.59a13.63,13.63,0,0,0,5.58,1.42,6.35,6.35,0,0,0,2.49-.46,4.66,4.66,0,0,0,2.65-2.85A5.63,5.63,0,0,0,28.91,196a4.46,4.46,0,0,0,3.1-2.82c1.32-3.42-.23-6.13-4.74-8.29Z" transform="translate(0 0)"/><path class="cls-1" d="M50,192.84l-.17,0-.12.12c-2.3,2.38-4.73,4.71-7.24,6.92-1-3.2-1.89-6.46-2.63-9.69l0-.17-.17,0L37.1,189l-.52-.18.11.54a130.49,130.49,0,0,0,3.43,13c-.78,2.72-1.57,5.44-2.35,8.16l-.08.29L38,211l2.69.75.3.08.08-.3c.73-2.73,1.45-5.47,2.18-8.2a125.43,125.43,0,0,0,9.62-9.38l.37-.4-.53-.11c-.89-.18-1.77-.37-2.65-.57Z" transform="translate(0 0)"/><path class="cls-1" d="M75.93,195.58h-.21l-.08.19c-1.83,4.88-3.94,9.75-6.25,14.49-1.94-4.91-3.66-9.94-5.1-15l-.06-.2-.21,0c-.84-.08-1.67-.17-2.51-.27l-.45,0,.12.44a160.49,160.49,0,0,0,7.68,21.87l.25.59.3-.57a165.22,165.22,0,0,0,9.34-21.16l.16-.43h-.46l-2.52.06Z" transform="translate(0 0)"/><path class="cls-1" d="M83.43,195.54l0-.3-.31,0-2.32.16h-.31l0,.31q.57,10,1.18,19.94l0,.31.31,0c.92-.05,1.84-.12,2.76-.19l.31,0,0-.31q-.83-10-1.61-19.91Z" transform="translate(0 0)"/><path class="cls-1" d="M100.51,205c-2.24.48-4.51.91-6.76,1.27.76-2.46,1.48-4.95,2.12-7.43,1.48,2.07,3,4.14,4.64,6.16Zm-5.44-12.17-.39-.56-.16.66a151.2,151.2,0,0,1-7.36,22.14l-.2.48.52-.05,3-.33.18,0,.07-.17c.72-1.92,1.42-3.88,2.06-5.84,3.21-.47,6.44-1.08,9.61-1.81,1.31,1.58,2.66,3.16,4,4.69l.13.14.18-.05c1-.25,2-.52,3-.79l.5-.14-.36-.37a147,147,0,0,1-14.79-18Z" transform="translate(0 0)"/><path class="cls-1" d="M114.44,207.1q-2.39-7.23-4.75-14.46l1.36-.46c2.49-.86,4.51-1.25,6.82-.57a7.56,7.56,0,0,1,4.87,4.17,6.73,6.73,0,0,1-.39,6.26c-1.19,2.08-3,3.39-6.32,4.53l-1.59.53ZM119,188.91c-3.12-.84-5.61-.35-8.85.76-1.25.43-2.52.84-3.78,1.22l-.3.09.09.3q2.91,9.56,5.84,19.1l.09.29.29-.09c1.48-.45,3-.92,4.43-1.43,3.62-1.24,6.44-2.74,8.4-6a8.87,8.87,0,0,0,.52-8.68,10.08,10.08,0,0,0-6.73-5.56Z" transform="translate(0 0)"/><path class="cls-1" d="M136,200.41q-4.74-8.79-9.45-17.59l-.15-.27-.27.14-2.12,1.1-.27.14.14.27q4.51,8.91,9.06,17.8l.15.28.27-.14c.84-.43,1.68-.86,2.51-1.31l.27-.15-.14-.27Z" transform="translate(0 0)"/><path class="cls-1" d="M208.89,91.54a6.84,6.84,0,0,0,5.29-.56,7.22,7.22,0,0,0,3.53-4.31,7.71,7.71,0,0,0-.49-5.51A6.17,6.17,0,0,0,213,77.83a6.08,6.08,0,0,0-5.3.47,6.86,6.86,0,0,0-3.31,4.4,7,7,0,0,0,.28,5.51,6.12,6.12,0,0,0,4.19,3.33Z" transform="translate(0 0)"/><path class="cls-1" d="M347.89,108.47q-1.65-4.27-3.51-8.28c-.45-1.17-1.1-2.7-2-4.57s-1.53-3.74-2.3-5.46c-2.95-6.53-1.83-8.35,0-8.61a11.53,11.53,0,0,1,7.32,4.61c2.89,4.27,3.58,8.47,3,14.83a19.14,19.14,0,0,1-2.47,7.48Zm-38.23,28.91a47.22,47.22,0,0,1-11.59-1.69q-4-1.16-7.75-2.55a39.26,39.26,0,0,1,8.8-9.86c4.55-3.39,0-12-9.27-9.91-6.65,1.54-10.6,12.53-10.49,13.28a15.59,15.59,0,0,1-5.13-5.66,27.5,27.5,0,0,1-2.15-6.1,23.8,23.8,0,0,1-.27-7,17.68,17.68,0,0,1,1.29-5.22,23.55,23.55,0,0,1,2.55-4.78,16.31,16.31,0,0,1,5-4.54,23.82,23.82,0,0,1,8.2-3,17,17,0,0,1,8.15.79q4.5,1.44,9,6.67A31.36,31.36,0,0,1,311.17,108a43.76,43.76,0,0,1,1.66,12.4,52.74,52.74,0,0,1-3.17,17Zm-8.32,19.52c-2.67,3.12-5.23,4.55-7.71,4.31a5.28,5.28,0,0,1-3.15-1.12,8.19,8.19,0,0,1-2-2.23,8.1,8.1,0,0,1-1.23-3,22.7,22.7,0,0,1-.83-7.84,42.44,42.44,0,0,1,1.53-9.22c1.41.59,2.81,1.11,4.21,1.56s2.86.9,4.39,1.35c1.95.55,3.9,1,5.83,1.35a58,58,0,0,0,5.79.74q-2.85,9.41-6.84,14.09ZM59,69c9.41-20.19,24.27-50.1,44.7-61.18,9.94-5.4,17.65,1.44,18.55,9.73.13,1.18,1,10.54-4.25,24-6.21,16-15.06,36.73-36.82,49.46a66,66,0,0,1-26.35,7.32,52.71,52.71,0,0,1-6.65-.49A185.05,185.05,0,0,1,59,69ZM159.94,11.69c2.68-3.61,3.8.33,3.8.33,0,7.48-11.78,33-19.2,45-2.26,3.67-2.74,0-2.74,0-.84-17.29,18.14-45.34,18.14-45.34Zm190.6,104.48a42.32,42.32,0,0,0,2.38-4.18c3.95-8.12,2.51-21.71-2.34-29.42-3.87-6.15-12.69-8.46-17.95-4.79a15.65,15.65,0,0,0-6.25,7.37c-2,5.54-.81,8.27-.41,9.66s.87,2.8,1.42,4.24,5.75,20.75,6.19,22.89q.44,2.09.84,4.68c-4.12,4.63-10.34,9.95-17,10.44a79.73,79.73,0,0,0,2-19,31,31,0,0,0-2.36-12.25,40.82,40.82,0,0,0-5.21-9,38.9,38.9,0,0,0-7.46-7.29,25.33,25.33,0,0,0-15.66-4.28,22,22,0,0,0-11,3.61,28.54,28.54,0,0,0-6.17,6,32.78,32.78,0,0,0-4,7.44,24,24,0,0,0-1.34,10.55,34.3,34.3,0,0,0,1.7,7.06,43.57,43.57,0,0,0,3.3,6.34,17.07,17.07,0,0,0,5.76,5.51l-2.3,3.31a76.68,76.68,0,0,1-8.08,9.94,84.49,84.49,0,0,1-8.62,8,34.64,34.64,0,0,1-10.17,5.78q-16.62,6.63-10.13-30.16a123.33,123.33,0,0,1,3.76-15.87,53.3,53.3,0,0,1,3.5-8.67,10.13,10.13,0,0,1,2.91-3.66,5.79,5.79,0,0,1,1.72-.84,4.08,4.08,0,0,1,1.3.07,2.63,2.63,0,0,1,2.12,1.68,2.86,2.86,0,0,1,.36,1.25c0,.42.11.92.17,1.48a5.1,5.1,0,0,1-.2,1.95,34.61,34.61,0,0,1-.79,4.39,2.73,2.73,0,0,0,.25,2.11,2.53,2.53,0,0,0,1.65,1.31,2.84,2.84,0,0,0,3.43-1.89c.17-1,.34-2,.53-2.85s.37-1.69.58-2.43a17.14,17.14,0,0,0,0-3.65,14.69,14.69,0,0,0-.53-2.72,11.58,11.58,0,0,0-.9-2.26,10.34,10.34,0,0,0-2.41-2.3,8.66,8.66,0,0,0-2.27-1,6.42,6.42,0,0,0-2.42-.58,15.88,15.88,0,0,0-8.16,1.79c-1.21.72-2.27,1.41-3.2,2.09a36.65,36.65,0,0,0-8.5,10,37.56,37.56,0,0,0-3,5.49,85.43,85.43,0,0,0-4.39,9.41,76.63,76.63,0,0,0-3.09,9.47,53.62,53.62,0,0,0-1.73,11.15,38.67,38.67,0,0,0,.57,9.59,16.9,16.9,0,0,0,1.53,4.66c-.94,1.42-1.88,2.76-2.84,4a25.12,25.12,0,0,1-4.33,4.48,8.15,8.15,0,0,1-4.24,1.92,5,5,0,0,1-4.5-3.31,23.36,23.36,0,0,1-1.73-7.95,77.2,77.2,0,0,1,.1-10.59q.42-5.78,1.18-11.09t1.72-9.7q.94-4.4,1.4-6.28.6-2.51,1.82-6.21a54.21,54.21,0,0,0,1.84-7.15,13.47,13.47,0,0,0-.12-6c-.5-1.73-1.86-2.85-4.1-3.34a5.31,5.31,0,0,0-4.13.88,15.1,15.1,0,0,0-3.4,3.38,21.07,21.07,0,0,0-2.58,4.53c-.68,1.64-1.24,3-1.69,4.16q-1.78,5.28-3.13,11.15a106.94,106.94,0,0,0-2,11.36,52.84,52.84,0,0,0,0,12.63c.12,1.32.28,2.59.47,3.85-.64.85-1.3,1.7-2,2.54-2.59,3.28-7.13,9.42-13.3,8.6-.82-.11-3.14-.24-3.07-5.73a27.14,27.14,0,0,1,.41-4.91q.61-3.48,1.23-7.16c.54-2.86,1.16-5.93,1.84-9.2.68-4,1.26-7.43,1.74-10.44s.85-5.65,1.12-8,.48-4.77.62-7Q179,99.82,177,95.72a19.82,19.82,0,0,0-4.71-6.34,16.22,16.22,0,0,0-7-3.27,14.64,14.64,0,0,0-6.34.51,15.12,15.12,0,0,0-4.91,2.55,41.21,41.21,0,0,0-4.3,4.09,56.22,56.22,0,0,0-4.8,8.19q-2,4.1-3.38,7.56a63.68,63.68,0,0,0-2.66,7.57,118.75,118.75,0,0,1,2.25-23.72,184.81,184.81,0,0,1,5.52-21A188,188,0,0,1,154,53.17l7.67-17a124.11,124.11,0,0,0,6.44-15.65,49.85,49.85,0,0,0,2.25-10c.2-2.52,0-4.33-.72-5.42a5.88,5.88,0,0,0-2.25-2.25,4.92,4.92,0,0,0-3-.31,10.91,10.91,0,0,0-2.76.92,22.67,22.67,0,0,0-3.07,1.84q-4.92,3.9-10,13a137.48,137.48,0,0,0-9.41,21.07,228.58,228.58,0,0,0-7.47,25.57,144.82,144.82,0,0,0-4,26.28,314.37,314.37,0,0,0,1.43,44.07,96.06,96.06,0,0,1-13,16.22c-9.89,9.8-22.52,17.17-36.28,19.29-9.21,1.42-19.45.15-26.31-6.17C42.21,154.22,42.57,134,44,120a127.07,127.07,0,0,1,3-17.66,57.52,57.52,0,0,0,8.48.63,60.43,60.43,0,0,0,20.75-3.73c25.34-9.22,45.13-32.59,53-62.52,2.36-9,2.31-16.75,0-22.78-1.92-5.11-9.1-15.84-24.29-13.7C93.32,1.91,80.6,9.92,73.48,15.74,58.64,27.88,47.09,44.34,38.86,61.55A139.2,139.2,0,0,0,28.55,91.28,72.36,72.36,0,0,1,4.24,68.79,2.33,2.33,0,1,0,.42,71.45,76.79,76.79,0,0,0,27.61,96c-3.34,18.45-2.42,37.57,5.21,54.73a71,71,0,0,0,3.61,7.06,38,38,0,0,0,12.33,13,36.65,36.65,0,0,0,6.54,2.86c19.81,6.6,41.37.38,57.42-12.26a91.28,91.28,0,0,0,17.33-18.27A76,76,0,0,0,132,153.18c.93,3.11,3.15,4.1,4.51,4.12,2.55,0,6.08-.24,5.73-9.2-.07-1.82.75-25,1-26.4s.64-2.43.88-3.5c0,0,0-.11.08-.17a7.19,7.19,0,0,0,.66-2.47,89,89,0,0,1,3.29-9.2,47.08,47.08,0,0,1,4.6-8.59A14.34,14.34,0,0,1,159,92.24a3.82,3.82,0,0,1,2.15-.2c.74.14,1.36.75,1.84,1.84a13.88,13.88,0,0,1,.61,5.42,54.33,54.33,0,0,1-1.74,10.53,184.94,184.94,0,0,0-4.3,26.19,85.85,85.85,0,0,0,.21,18,13.59,13.59,0,0,0,1.23,4.5,16,16,0,0,0,2.66,4.09,12.59,12.59,0,0,0,4,3A12.44,12.44,0,0,0,171,166.7a20.3,20.3,0,0,0,9.31-2.46,35.5,35.5,0,0,0,5.83-3.88,52.13,52.13,0,0,0,5.38-5.35c.06.22.1.45.17.66a58.11,58.11,0,0,0,3.66,9,16.23,16.23,0,0,0,6.13,6.75c1,.46,2.07.91,3.2,1.36a14.94,14.94,0,0,0,3.14.65,7.75,7.75,0,0,0,3.64-.63q5.35-2.12,10.15-8.38c.65-.86,1.28-1.73,1.9-2.6a18.4,18.4,0,0,0,6.16,3.9,20,20,0,0,0,7.88,1.34,29.34,29.34,0,0,0,11.06-2.66,53.68,53.68,0,0,0,13.63-8.33,110.32,110.32,0,0,0,10.45-9.89q1.56-1.83,3-3.7a41.17,41.17,0,0,0,1.06,9.58,22.46,22.46,0,0,0,5,9.71,9.46,9.46,0,0,0,3.48,3,15.28,15.28,0,0,0,4,1.78,10.53,10.53,0,0,0,5.13.06,19.44,19.44,0,0,0,7-2.62,23.12,23.12,0,0,0,5.24-4.35,33.58,33.58,0,0,0,4.51-6c.85-1.56,1.67-3.22,2.44-5a53.24,53.24,0,0,0,2.16-6,46.06,46.06,0,0,0,19.65-10,24.06,24.06,0,0,1,.28,2.78,45,45,0,0,1-.58,12.32c-2.61,12.42-2.72,27.32-29.27,41.32-14.17,7-41.3,11.87-112.59-4a92.68,92.68,0,0,0-19.67-1.7c-14.16.34-24.51,4.52-29.92,12.06a1.55,1.55,0,0,0,2.52,1.8c11.77-16.41,44.9-9.43,46.41-9.13,81,16.06,100.92,9.57,115.72,4.64,18.51-6.17,30.85-14.81,37-24.68,6-9.65,12.34-27.15,6.56-46.67-.54-1.82-.86-3.62-1.35-5.28Z" transform="translate(0 0)"/></g></g></svg>